<?xml version="1.0" standalone="no"?>
<!DOCTYPE svg PUBLIC "-//W3C//DTD SVG 20010904//EN"
 "http://www.w3.org/TR/2001/REC-SVG-20010904/DTD/svg10.dtd">
<svg version="1.0" xmlns="http://www.w3.org/2000/svg"
 width="1000.000000pt" height="1000.000000pt" viewBox="0 0 1000.000000 1000.000000"
 preserveAspectRatio="xMidYMid meet">
<metadata>
Created by potrace 1.11, written by Peter Selinger 2001-2013
</metadata>
<g transform="translate(0.000000,1000.000000) scale(0.100000,-0.100000)"
fill="#000000" stroke="none">
<path d="M1718 9984 c-432 -63 -824 -259 -1133 -569 -260 -260 -436 -569 -526
-922 -63 -251 -60 -19 -56 -3548 l2 -3210 28 -125 c92 -413 269 -743 552
-1025 319 -320 727 -519 1175 -575 118 -14 6362 -14 6480 0 358 45 706 188
990 408 420 325 700 824 760 1352 8 67 10 1041 8 3295 l-4 3200 -26 122 c-89
408 -270 745 -553 1028 -260 261 -568 436 -921 526 -250 63 -23 59 -3507 58
-2664 -1 -3188 -3 -3269 -15z m1152 -3118 l0 -254 -57 -10 c-32 -5 -149 -25
-260 -43 l-203 -33 0 -1508 0 -1508 605 0 c333 0 605 1 605 3 0 1 9 135 20
297 11 162 20 303 20 313 0 16 22 17 325 17 l325 0 0 -640 0 -640 -1600 0
-1600 0 0 254 c0 234 1 255 18 260 9 3 103 21 207 41 105 20 198 38 208 41 16
5 17 87 17 1537 l0 1532 -177 34 c-98 18 -199 37 -225 43 l-48 10 0 254 0 254
910 0 910 0 0 -254z m3940 -1226 c509 -811 930 -1474 935 -1472 6 1 10 438 10
1179 l0 1178 -272 44 -273 44 0 253 0 254 880 0 880 0 0 -254 0 -254 -47 -10
c-27 -6 -128 -25 -225 -43 l-178 -34 0 -1832 0 -1833 -412 2 -413 3 -946 1459
c-520 803 -951 1462 -957 1464 -9 3 -12 -273 -12 -1161 0 -1102 1 -1166 18
-1171 9 -2 121 -21 247 -41 127 -19 240 -38 253 -40 l22 -5 0 -255 0 -255
-880 0 -880 0 0 254 0 254 48 10 c26 6 121 25 212 42 91 17 173 33 183 36 16
5 17 85 15 1537 l-3 1532 -227 44 -228 43 0 254 0 254 662 -2 661 -3 927
-1475z"/>
</g>
</svg>
